<svg width="197" height="43" viewBox="0 0 197 43" fill="none" xmlns="http://www.w3.org/2000/svg">
<path fill-rule="evenodd" clip-rule="evenodd" d="M61.3015 39.7771C62.2223 39.7771 62.8801 40.5006 62.8801 41.3557C62.8801 42.2765 62.1565 42.9343 61.3015 42.9343C60.3806 42.9343 59.7229 42.2107 59.7229 41.3557C59.6571 40.5006 60.3806 39.7771 61.3015 39.7771Z" fill="white"/>
<path fill-rule="evenodd" clip-rule="evenodd" d="M73.7329 39.7771C74.6537 39.7771 75.3114 40.5006 75.3114 41.3557C75.3114 42.2765 74.5879 42.9343 73.7329 42.9343C72.812 42.9343 72.1543 42.2107 72.1543 41.3557C72.1543 40.5006 72.8778 39.7771 73.7329 39.7771Z" fill="white"/>
<path fill-rule="evenodd" clip-rule="evenodd" d="M86.0984 39.7771C87.0192 39.7771 87.6769 40.5006 87.6769 41.3557C87.6769 42.2765 86.9534 42.9343 86.0984 42.9343C85.1775 42.9343 84.5198 42.2107 84.5198 41.3557C84.454 40.5006 85.1775 39.7771 86.0984 39.7771Z" fill="white"/>
<path fill-rule="evenodd" clip-rule="evenodd" d="M98.3982 39.7771C99.319 39.7771 99.9767 40.5006 99.9767 41.3557C99.9767 42.2765 99.2532 42.9343 98.3982 42.9343C97.4773 42.9343 96.8196 42.2107 96.8196 41.3557C96.7538 40.5006 97.4773 39.7771 98.3982 39.7771Z" fill="white"/>
<path fill-rule="evenodd" clip-rule="evenodd" d="M110.829 39.7771C111.75 39.7771 112.408 40.5006 112.408 41.3557C112.408 42.2765 111.684 42.9343 110.829 42.9343C109.908 42.9343 109.25 42.2107 109.25 41.3557C109.25 40.5006 109.974 39.7771 110.829 39.7771Z" fill="white"/>
<path fill-rule="evenodd" clip-rule="evenodd" d="M123.326 39.7771C124.247 39.7771 124.905 40.5006 124.905 41.3557C124.905 42.2765 124.182 42.9343 123.326 42.9343C122.471 42.9343 121.682 42.2765 121.682 41.3557C121.682 40.5006 122.406 39.7771 123.326 39.7771Z" fill="white"/>
<path fill-rule="evenodd" clip-rule="evenodd" d="M135.297 39.7771C136.218 39.7771 136.876 40.5006 136.876 41.3557C136.876 42.2765 136.152 42.9343 135.297 42.9343C134.376 42.9343 133.719 42.2107 133.719 41.3557C133.719 40.5006 134.442 39.7771 135.297 39.7771Z" fill="white"/>
<path fill-rule="evenodd" clip-rule="evenodd" d="M183.575 24.8464H177.458V0.904698H183.575V9.98151H190.482V0.904698H196.599V24.8464H190.482V15.8354H183.575V24.8464ZM165.553 19.8476C163.712 23.4652 160.817 25.2411 156.937 25.2411C154.372 25.2411 152.201 24.5833 150.425 23.2021C148.452 21.6893 147.465 19.6503 147.465 17.0851V8.79758C147.465 6.23239 148.452 4.1934 150.425 2.6806C152.201 1.29934 154.372 0.641602 157.003 0.641602C160.949 0.641602 163.777 2.48327 165.422 6.16662L160.489 8.13984C159.699 6.69281 158.318 6.03507 156.411 6.23239C154.503 6.42971 153.517 7.28478 153.517 8.79758V17.0193C153.517 17.7428 153.845 18.3348 154.372 18.7295C154.898 19.1899 155.556 19.453 156.345 19.5187C158.252 19.7161 159.568 18.9926 160.226 17.414L165.553 19.8476ZM124.773 10.3104H134.508V15.5723H124.773V19.1899H135.363V24.9122H118.656V0.904698H135.363V6.56126H124.773V10.3104ZM100.174 6.62704V24.8464H94.0568V6.62704H87.6768V0.904698H106.554V6.62704H100.174ZM75.5743 24.8464H69.5231V0.904698H75.5743V24.8464ZM33.7421 0.904698H39.7933L44.8579 12.6125L49.9225 0.904698H55.9737V24.8464H49.8567L49.9225 17.9402L50.3171 13.0729H50.1198L46.9626 21.2946H42.8189L39.596 13.0729L39.3986 13.1387L39.7933 18.0059V24.9122H33.7421V0.904698V0.904698ZM12.9575 14.7172L11.3131 7.67942H11.1158L9.33991 14.7172H12.9575ZM22.4289 24.8464H15.9173L14.3387 20.0449H7.95866L6.44585 24.8464H0L8.3533 0.904698H13.8783L22.4289 24.8464Z" fill="white"/>
</svg>
